<svg xmlns="http://www.w3.org/2000/svg" viewBox="0 0 100 100" width="100" height="100">
  <!-- Gear Circle -->
  <circle cx="50" cy="50" r="40" fill="none" stroke="black" stroke-width="2" />
  
  <!-- Wavy Edge -->
  <path d="M50,5
           A5,5 0 0 1 55,10
           A45,45 0 0 1 90,45
           A5,5 0 0 1 85,50
           A5,5 0 0 1 90,55
           A45,45 0 0 1 55,90
           A5,5 0 0 1 50,95
           A5,5 0 0 1 45,90
           A45,45 0 0 1 10,55
           A5,5 0 0 1 15,50
           A5,5 0 0 1 10,45
           A45,45 0 0 1 45,10
           A5,5 0 0 1 50,5
           Z" fill="none" stroke="black" stroke-width="2" />
</svg>
