<svg
   xmlns="http://www.w3.org/2000/svg"
   width="38mm"
   height="38mm"
   viewBox="0 0 38 38"
   id="gear">
  <g
     id="gear-group"
     transform="translate(-77.761906,-52.815477)">
    <path
       style="fill:#000000;fill-opacity:1;stroke-width:1.32292;stroke-linecap:round"
       id="gear-path"
       transform="matrix(-0.3347678,0.03294799,0.0328597,0.33388352,113.6454,35.886502)"
       d="m 104.84273,105.10881 c -0.39588,5.22566 11.66867,5.07834 10.41807,10.16757 -1.2506,5.08923 -11.8728,-0.63301 -13.944,4.18097 -2.071202,4.81398 9.38749,8.59199 6.55218,12.9994 -2.83531,4.40742 -11.023955,-4.4538 -14.546031,-0.57317 -3.522076,3.88062 6.089037,11.17457 1.976267,14.42255 -4.112769,3.24798 -8.980503,-7.79195 -13.57178,-5.26521 -4.591277,2.52675 2.13074,12.54621 -2.813807,14.28279 -4.944547,1.73659 -5.963871,-10.28573 -11.126813,-9.38667 -5.162942,0.89905 -2.058457,12.55827 -7.298962,12.59527 -5.240506,0.037 -2.300961,-11.66489 -7.476083,-12.49095 -5.175122,-0.82607 -6.024587,11.20944 -10.993162,9.54285 -4.968574,-1.66659 1.611294,-11.77997 -3.015203,-14.24164 -4.626497,-2.46166 -9.337859,8.64591 -13.496081,5.45632 -4.158221,-3.18958 5.348941,-10.61851 1.772421,-14.44902 -3.57652,-3.8305 -11.639231,5.14546 -14.536491,0.77852 -2.8972606,-4.36694 8.506946,-8.30638 6.367975,-13.09063 C 16.972259,115.25351 6.4319198,121.12516 5.1095835,116.0541 3.7872472,110.98303 15.852675,110.95999 15.383044,105.74043 14.913412,100.52088 3.0376544,102.65196 3.4335379,97.426293 3.8294214,92.200631 15.248595,96.09647 16.499195,91.007239 17.749795,85.918009 5.8255405,84.077561 7.8967436,79.263583 9.9679468,74.449605 19.503421,81.842156 22.338731,77.434743 25.17404,73.02733 14.493467,67.414803 18.015543,63.534178 c 3.522076,-3.880625 10.140535,6.207541 14.253304,2.959558 4.112769,-3.247984 -4.166717,-12.024385 0.42456,-14.551131 4.591277,-2.526746 7.575507,9.163826 12.520054,7.427241 4.944546,-1.736585 -0.03664,-12.725801 5.126301,-13.624856 5.162942,-0.899054 4.189556,11.127068 9.430062,11.090067 5.240505,-0.037 4.097405,-12.048179 9.272527,-11.222116 5.175122,0.826063 0.349601,11.884519 5.318176,13.551113 4.968574,1.666594 7.787433,-10.06495 12.413931,-7.603286 4.626497,2.461664 -3.528238,11.354098 0.629983,14.543685 4.158222,3.189586 10.633573,-6.991028 14.210089,-3.160523 3.57652,3.830506 -7.023733,9.593285 -4.126473,13.960223 2.897263,4.366939 12.327403,-3.159519 14.466373,1.624734 2.13897,4.784252 -9.75811,6.79289 -8.43577,11.863954 1.32233,5.071065 12.68536,1.014373 13.15499,6.233924 0.46963,5.219555 -11.43503,3.256381 -11.83092,8.482045 z" />
  </g>
</svg>
